<?xml version="1.0" standalone="no"?>
<!DOCTYPE svg PUBLIC "-//W3C//DTD SVG 20010904//EN"
 "http://www.w3.org/TR/2001/REC-SVG-20010904/DTD/svg10.dtd">
<svg version="1.0" xmlns="http://www.w3.org/2000/svg"
 width="401.000000pt" height="403.000000pt" viewBox="0 0 401.000000 403.000000"
 preserveAspectRatio="xMidYMid meet">

<g transform="translate(0.000000,403.000000) scale(0.100000,-0.100000)"
fill="#000000" stroke="none">
<path d="M1620 3585 c-86 -14 -218 -49 -229 -61 -3 -3 12 -2 34 3 63 13 242 6
330 -12 114 -24 246 -69 339 -118 149 -76 287 -238 333 -389 42 -138 7 -327
-86 -469 -62 -95 -121 -148 -303 -280 -172 -123 -283 -231 -324 -314 -25 -52
-29 -72 -29 -142 0 -106 -17 -80 -23 36 -8 148 21 218 157 379 64 76 74 107
44 134 -31 27 -60 30 -105 10 -134 -59 -209 -193 -211 -377 -2 -140 27 -223
123 -350 l50 -66 -20 -26 c-103 -131 185 -267 439 -208 124 30 201 89 201 156
0 45 -69 110 -141 134 -108 36 -260 17 -329 -42 l-30 -25 -10 27 c-49 129 54
266 306 409 235 134 365 228 482 348 159 163 232 326 232 518 1 419 -403 717
-995 735 -104 3 -176 0 -235 -10z"/>
<path d="M1211 2094 c-346 -75 -640 -221 -813 -402 -131 -137 -178 -245 -178
-406 1 -154 55 -274 186 -415 236 -252 664 -434 1189 -506 163 -23 527 -31
696 -16 562 50 1050 239 1319 511 143 144 205 279 204 440 -2 152 -63 279
-200 414 -185 182 -461 312 -821 385 -133 27 -161 25 -51 -4 365 -95 635 -253
762 -443 67 -101 89 -177 84 -288 -3 -81 -8 -100 -40 -165 -224 -454 -1158
-722 -2010 -578 -427 72 -763 225 -959 437 -226 244 -187 522 106 758 138 111
342 203 640 288 82 23 11 17 -114 -10z"/>
<path d="M2651 1885 c227 -79 397 -205 461 -341 27 -58 30 -73 26 -133 -10
-141 -115 -259 -321 -360 -179 -89 -351 -134 -607 -161 -483 -50 -1040 95
-1234 322 -141 165 -113 345 76 493 68 53 229 141 303 166 76 25 7 21 -84 -5
-192 -55 -375 -156 -462 -254 -52 -59 -96 -149 -104 -216 -14 -107 45 -239
147 -330 357 -317 1180 -433 1811 -255 376 106 618 291 657 501 44 238 -200
473 -597 574 -120 30 -159 30 -72 -1z"/>
<path d="M2428 1720 c224 -91 311 -218 233 -341 -120 -190 -641 -280 -1009
-173 -229 66 -348 179 -312 297 17 58 89 128 175 172 41 21 73 40 72 42 -8 8
-118 -32 -187 -68 -101 -52 -143 -89 -174 -151 -118 -237 212 -447 729 -465
634 -21 1069 283 788 552 -56 54 -174 114 -284 144 -105 29 -117 26 -31 -9z"/>
</g>
</svg>
