<?xml version="1.0" standalone="no"?>
<!DOCTYPE svg PUBLIC "-//W3C//DTD SVG 20010904//EN"
 "http://www.w3.org/TR/2001/REC-SVG-20010904/DTD/svg10.dtd">
<svg version="1.0" xmlns="http://www.w3.org/2000/svg"
 width="1024.000000pt" height="1024.000000pt" viewBox="0 0 1024.000000 1024.000000"
 preserveAspectRatio="xMidYMid meet">

<g transform="translate(0.000000,1024.000000) scale(0.100000,-0.100000)"
fill="#000000" stroke="none">
<path d="M4760 7954 c-100 -13 -297 -61 -287 -70 1 -1 36 2 77 7 164 20 411
-30 600 -123 90 -44 117 -64 190 -137 116 -117 159 -200 185 -362 7 -47 -10
-165 -35 -236 -51 -145 -150 -255 -370 -413 -173 -124 -285 -232 -326 -315
-25 -52 -29 -72 -29 -142 0 -111 -18 -78 -23 43 -7 147 24 216 173 392 48 56
56 90 28 114 -41 35 -92 28 -162 -22 -100 -73 -154 -195 -155 -350 -1 -135 30
-220 124 -345 l50 -66 -20 -29 c-98 -138 192 -267 453 -201 123 32 187 84 187
152 0 45 -69 111 -141 135 -107 35 -261 15 -329 -43 l-30 -25 -11 29 c-15 39
-5 113 25 171 36 72 118 140 278 233 447 257 641 458 704 727 21 89 14 254
-15 335 -113 322 -480 528 -961 541 -80 2 -161 2 -180 0z"/>
<path d="M4291 6454 c-347 -76 -622 -211 -806 -398 -136 -137 -185 -245 -185
-407 0 -153 56 -280 184 -416 311 -330 925 -533 1616 -533 451 0 842 80 1179
241 616 294 790 740 434 1110 -174 180 -412 304 -733 383 -188 45 -287 58
-140 17 441 -122 726 -322 810 -571 18 -53 21 -82 18 -156 -3 -81 -8 -100 -41
-167 -223 -451 -1162 -721 -2010 -576 -718 122 -1176 479 -1093 851 51 229
299 439 668 566 62 22 148 47 191 57 42 9 77 19 77 21 0 9 -61 1 -169 -22z"/>
<path d="M5734 6245 c220 -77 394 -206 456 -337 61 -129 30 -250 -94 -366
-147 -137 -373 -229 -686 -278 -176 -28 -502 -26 -674 5 -171 30 -309 72 -431
130 -225 108 -338 236 -337 385 0 104 52 193 164 281 68 54 230 142 303 165
75 24 17 21 -77 -4 -129 -34 -243 -84 -342 -150 -102 -68 -158 -129 -200 -216
-26 -55 -31 -77 -31 -140 0 -64 5 -85 33 -144 169 -361 981 -578 1701 -455
491 83 835 298 881 551 44 238 -199 472 -596 573 -124 31 -161 31 -70 0z"/>
<path d="M5500 6084 c136 -57 235 -133 260 -200 43 -112 -48 -224 -236 -293
-148 -54 -228 -66 -444 -65 -169 0 -208 3 -288 23 -226 56 -357 143 -377 251
-15 81 63 178 191 241 35 18 63 33 61 35 -8 8 -130 -36 -193 -70 -96 -50 -138
-87 -168 -148 -34 -67 -33 -119 0 -187 126 -251 795 -363 1262 -210 318 104
432 313 261 479 -73 71 -234 145 -356 165 -32 5 -27 1 27 -21z"/>
<path d="M6180 3585 l0 -705 145 0 145 0 0 705 0 705 -145 0 -145 0 0 -705z"/>
<path d="M2840 4155 l0 -125 200 0 200 0 0 -575 0 -575 145 0 145 0 0 575 0
575 190 0 190 0 0 125 0 125 -535 0 -535 0 0 -125z"/>
<path d="M6760 4075 l0 -135 -70 0 -70 0 0 -105 0 -105 69 0 70 0 3 -327 c3
-375 5 -381 91 -460 67 -61 129 -77 281 -70 67 2 129 8 139 12 15 6 17 22 17
121 0 63 -2 114 -3 114 -2 0 -19 -7 -36 -16 -23 -11 -49 -15 -87 -12 -64 5
-99 32 -114 87 -5 20 -10 152 -10 294 l0 257 125 0 125 0 0 105 0 105 -125 0
-125 0 0 135 0 135 -140 0 -140 0 0 -135z"/>
<path d="M4140 3945 c-94 -21 -182 -68 -229 -121 -41 -47 -81 -135 -81 -179
l0 -25 134 0 c126 0 135 1 141 20 9 29 53 79 84 94 37 20 112 29 161 21 77
-13 130 -82 130 -170 l0 -43 -47 -6 c-27 -3 -105 -11 -175 -16 -198 -16 -296
-50 -370 -127 -96 -99 -109 -270 -28 -381 73 -102 203 -158 343 -150 103 6
160 31 232 99 l55 52 0 -67 0 -66 141 0 140 0 -3 398 c-4 391 -4 398 -27 457
-33 82 -115 164 -196 195 -51 20 -82 24 -200 26 -97 3 -160 -1 -205 -11z m340
-642 c0 -111 -36 -183 -110 -220 -83 -42 -215 -21 -255 41 -9 14 -17 45 -17
70 -2 93 54 130 230 150 64 8 125 14 135 15 14 1 17 -8 17 -56z"/>
<path d="M5430 3944 c-50 -18 -115 -60 -172 -112 l-38 -34 0 71 0 71 -130 0
-130 0 0 -720 0 -720 145 0 146 0 -3 245 c-2 135 -2 245 0 245 1 0 25 -17 52
-39 80 -63 133 -84 226 -89 93 -5 166 12 257 61 151 80 237 260 237 495 0 244
-89 416 -258 499 -71 36 -82 38 -181 40 -78 2 -118 -1 -151 -13z m160 -236
c82 -42 130 -149 130 -293 0 -216 -81 -325 -240 -325 -108 1 -168 39 -212 135
-19 43 -22 68 -23 170 0 75 5 138 14 168 18 61 82 133 136 152 62 22 143 19
195 -7z"/>
</g>
</svg>
